<?xml version="1.0" encoding="UTF-8" standalone="no"?>
<!DOCTYPE svg PUBLIC "-//W3C//DTD SVG 1.1//EN" "http://www.w3.org/Graphics/SVG/1.1/DTD/svg11.dtd">
<svg width="100%" height="100%" viewBox="0 0 574 196" version="1.1" xmlns="http://www.w3.org/2000/svg" xmlns:xlink="http://www.w3.org/1999/xlink" xml:space="preserve" xmlns:serif="http://www.serif.com/" style="fill-rule:evenodd;clip-rule:evenodd;stroke-linejoin:round;stroke-miterlimit:2;">
    <g transform="matrix(1,0,0,1,-88.4374,-207.723)">
        <g transform="matrix(160.464,0,0,160.464,82.1693,325.955)">
            <path d="M0.847,-0.469C0.847,-0.464 0.845,-0.46 0.842,-0.456C0.839,-0.452 0.834,-0.45 0.829,-0.45C0.824,-0.45 0.82,-0.452 0.816,-0.455C0.813,-0.458 0.811,-0.463 0.81,-0.468C0.81,-0.47 0.809,-0.476 0.808,-0.487C0.807,-0.498 0.803,-0.511 0.798,-0.528C0.793,-0.544 0.785,-0.561 0.773,-0.579C0.762,-0.598 0.747,-0.615 0.728,-0.63C0.708,-0.646 0.684,-0.659 0.654,-0.669C0.625,-0.68 0.589,-0.685 0.546,-0.685C0.509,-0.685 0.471,-0.679 0.433,-0.668C0.395,-0.657 0.359,-0.641 0.324,-0.621C0.289,-0.601 0.257,-0.576 0.227,-0.548C0.196,-0.52 0.17,-0.489 0.148,-0.455C0.125,-0.421 0.108,-0.385 0.095,-0.347C0.082,-0.308 0.076,-0.269 0.076,-0.228C0.076,-0.191 0.081,-0.16 0.091,-0.134C0.101,-0.107 0.115,-0.086 0.133,-0.069C0.151,-0.053 0.172,-0.041 0.196,-0.033C0.22,-0.025 0.246,-0.021 0.274,-0.021C0.323,-0.021 0.368,-0.03 0.41,-0.047C0.453,-0.063 0.492,-0.086 0.528,-0.115C0.564,-0.143 0.596,-0.176 0.626,-0.214C0.656,-0.252 0.682,-0.292 0.706,-0.334C0.708,-0.374 0.713,-0.404 0.719,-0.425C0.726,-0.446 0.736,-0.457 0.75,-0.457C0.757,-0.457 0.763,-0.453 0.768,-0.447C0.773,-0.441 0.776,-0.433 0.776,-0.423C0.776,-0.413 0.773,-0.399 0.768,-0.382C0.762,-0.366 0.754,-0.347 0.742,-0.325C0.741,-0.309 0.741,-0.293 0.741,-0.275C0.741,-0.25 0.742,-0.222 0.744,-0.191C0.746,-0.16 0.749,-0.128 0.754,-0.093C0.768,-0.1 0.778,-0.105 0.786,-0.108C0.794,-0.111 0.799,-0.113 0.803,-0.115C0.806,-0.116 0.809,-0.116 0.81,-0.116C0.811,-0.116 0.811,-0.116 0.812,-0.116C0.817,-0.116 0.821,-0.114 0.825,-0.111C0.829,-0.107 0.831,-0.103 0.831,-0.097C0.831,-0.093 0.829,-0.09 0.827,-0.087C0.825,-0.084 0.822,-0.081 0.818,-0.08C0.817,-0.08 0.812,-0.078 0.801,-0.073C0.79,-0.069 0.776,-0.063 0.759,-0.054C0.76,-0.037 0.762,-0.019 0.763,-0.001C0.764,0.017 0.764,0.035 0.764,0.053C0.764,0.096 0.761,0.137 0.755,0.176C0.749,0.215 0.739,0.25 0.724,0.279C0.71,0.309 0.691,0.332 0.668,0.35C0.645,0.367 0.616,0.376 0.582,0.376C0.565,0.376 0.549,0.373 0.535,0.367C0.52,0.361 0.508,0.353 0.498,0.343C0.487,0.332 0.479,0.32 0.473,0.305C0.467,0.291 0.464,0.275 0.464,0.258C0.464,0.233 0.469,0.209 0.477,0.186C0.485,0.162 0.496,0.139 0.51,0.117C0.524,0.095 0.54,0.074 0.558,0.054C0.576,0.034 0.594,0.016 0.613,-0C0.632,-0.017 0.65,-0.032 0.669,-0.044C0.687,-0.057 0.704,-0.067 0.719,-0.075C0.715,-0.108 0.712,-0.14 0.709,-0.171C0.706,-0.203 0.705,-0.233 0.704,-0.263C0.676,-0.217 0.645,-0.178 0.611,-0.143C0.577,-0.109 0.541,-0.08 0.504,-0.056C0.467,-0.033 0.429,-0.015 0.389,-0.003C0.35,0.009 0.311,0.015 0.272,0.015C0.237,0.015 0.205,0.009 0.177,-0.001C0.148,-0.012 0.124,-0.027 0.103,-0.048C0.083,-0.068 0.067,-0.094 0.056,-0.124C0.045,-0.154 0.039,-0.189 0.039,-0.229C0.039,-0.27 0.046,-0.311 0.059,-0.352C0.072,-0.392 0.09,-0.431 0.113,-0.468C0.136,-0.504 0.163,-0.538 0.195,-0.569C0.227,-0.6 0.261,-0.627 0.299,-0.649C0.337,-0.672 0.376,-0.69 0.418,-0.702C0.46,-0.715 0.503,-0.722 0.546,-0.722C0.588,-0.722 0.625,-0.717 0.656,-0.707C0.687,-0.698 0.713,-0.685 0.735,-0.671C0.756,-0.656 0.774,-0.64 0.787,-0.622C0.801,-0.605 0.812,-0.588 0.819,-0.573C0.826,-0.559 0.831,-0.547 0.835,-0.534C0.838,-0.522 0.841,-0.511 0.843,-0.501C0.845,-0.492 0.846,-0.484 0.846,-0.479C0.847,-0.473 0.847,-0.47 0.847,-0.469ZM0.724,-0.035C0.707,-0.026 0.691,-0.015 0.673,-0.002C0.656,0.01 0.639,0.024 0.622,0.039C0.606,0.054 0.59,0.07 0.576,0.087C0.561,0.105 0.548,0.123 0.537,0.141C0.526,0.16 0.517,0.179 0.511,0.198C0.505,0.218 0.501,0.238 0.501,0.258C0.501,0.27 0.503,0.281 0.507,0.291C0.511,0.301 0.517,0.31 0.524,0.317C0.531,0.324 0.54,0.329 0.549,0.333C0.559,0.337 0.57,0.339 0.582,0.339C0.627,0.339 0.663,0.315 0.689,0.266C0.715,0.217 0.728,0.146 0.728,0.053C0.728,0.039 0.727,0.024 0.727,0.01C0.726,-0.004 0.725,-0.019 0.724,-0.035Z" style="fill:white;fill-rule:nonzero;"/>
        </g>
        <g transform="matrix(160.464,0,0,160.464,221.243,325.955)">
            <path d="M0.103,-0.383C0.103,-0.371 0.098,-0.36 0.09,-0.352C0.081,-0.343 0.07,-0.339 0.058,-0.339C0.046,-0.339 0.035,-0.343 0.027,-0.352C0.018,-0.36 0.014,-0.371 0.014,-0.383C0.014,-0.389 0.015,-0.395 0.017,-0.401C0.019,-0.406 0.023,-0.411 0.027,-0.415C0.031,-0.419 0.035,-0.422 0.041,-0.424C0.046,-0.427 0.052,-0.428 0.058,-0.428C0.064,-0.428 0.07,-0.427 0.075,-0.424C0.081,-0.422 0.086,-0.419 0.09,-0.415C0.094,-0.411 0.097,-0.406 0.099,-0.401C0.101,-0.395 0.103,-0.389 0.103,-0.383ZM0.056,0.017C0.068,0.004 0.08,-0.01 0.093,-0.024C0.105,-0.039 0.118,-0.053 0.129,-0.068C0.141,-0.082 0.152,-0.096 0.162,-0.111C0.171,-0.125 0.179,-0.138 0.185,-0.151C0.188,-0.158 0.193,-0.162 0.201,-0.162C0.207,-0.162 0.211,-0.16 0.215,-0.156C0.218,-0.152 0.22,-0.148 0.22,-0.144C0.22,-0.141 0.219,-0.139 0.218,-0.136C0.211,-0.119 0.201,-0.102 0.188,-0.083C0.174,-0.065 0.16,-0.047 0.145,-0.029C0.13,-0.011 0.115,0.007 0.099,0.024C0.083,0.041 0.069,0.057 0.056,0.071C0.056,0.097 0.056,0.123 0.057,0.148C0.057,0.173 0.058,0.197 0.058,0.219C0.058,0.309 0.049,0.375 0.031,0.418C0.014,0.462 -0.013,0.483 -0.047,0.483C-0.059,0.483 -0.07,0.481 -0.081,0.476C-0.091,0.47 -0.099,0.463 -0.106,0.453C-0.114,0.443 -0.119,0.431 -0.123,0.417C-0.127,0.403 -0.129,0.386 -0.129,0.368C-0.129,0.348 -0.127,0.326 -0.121,0.302C-0.116,0.278 -0.107,0.253 -0.095,0.226C-0.084,0.199 -0.068,0.172 -0.049,0.143C-0.03,0.115 -0.008,0.086 0.019,0.057C0.019,0.029 0.019,0.001 0.02,-0.027C0.02,-0.055 0.02,-0.082 0.021,-0.107C0.022,-0.133 0.023,-0.157 0.025,-0.179C0.026,-0.201 0.028,-0.221 0.03,-0.238C0.03,-0.243 0.032,-0.247 0.036,-0.25C0.039,-0.253 0.043,-0.254 0.048,-0.254C0.053,-0.254 0.057,-0.253 0.061,-0.249C0.065,-0.245 0.066,-0.241 0.066,-0.236C0.066,-0.234 0.066,-0.228 0.065,-0.217C0.064,-0.206 0.062,-0.19 0.061,-0.169C0.06,-0.149 0.059,-0.123 0.057,-0.092C0.056,-0.061 0.056,-0.025 0.056,0.017ZM0.075,-0.383C0.075,-0.388 0.073,-0.392 0.07,-0.395C0.067,-0.399 0.063,-0.4 0.058,-0.4C0.054,-0.4 0.05,-0.399 0.046,-0.395C0.043,-0.392 0.041,-0.388 0.041,-0.383C0.041,-0.379 0.043,-0.375 0.046,-0.372C0.05,-0.368 0.054,-0.367 0.058,-0.367C0.063,-0.367 0.067,-0.368 0.07,-0.372C0.073,-0.375 0.075,-0.379 0.075,-0.383ZM0.021,0.216C0.021,0.2 0.021,0.183 0.021,0.167C0.02,0.15 0.02,0.132 0.02,0.112C-0.001,0.137 -0.018,0.161 -0.032,0.185C-0.046,0.208 -0.058,0.231 -0.067,0.253C-0.076,0.275 -0.083,0.295 -0.087,0.315C-0.091,0.334 -0.093,0.352 -0.093,0.368C-0.093,0.377 -0.092,0.386 -0.091,0.396C-0.09,0.405 -0.087,0.413 -0.084,0.421C-0.08,0.429 -0.076,0.435 -0.07,0.44C-0.064,0.444 -0.056,0.447 -0.047,0.447C-0.044,0.447 -0.04,0.446 -0.035,0.444C-0.03,0.443 -0.025,0.439 -0.02,0.434C-0.015,0.428 -0.01,0.421 -0.005,0.411C0,0.401 0.004,0.387 0.008,0.37C0.012,0.353 0.015,0.332 0.018,0.307C0.02,0.282 0.021,0.251 0.021,0.216Z" style="fill:white;fill-rule:nonzero;"/>
        </g>
        <g transform="matrix(160.464,0,0,160.464,247.882,325.955)">
            <path d="M0.244,-0.054C0.236,-0.054 0.228,-0.054 0.222,-0.056C0.217,-0.046 0.211,-0.037 0.205,-0.029C0.198,-0.02 0.19,-0.013 0.181,-0.007C0.172,-0.001 0.162,0.004 0.151,0.008C0.14,0.011 0.128,0.013 0.115,0.013C0.101,0.013 0.089,0.011 0.077,0.006L0.047,0.052C0.044,0.056 0.04,0.059 0.034,0.059C0.029,0.058 0.025,0.057 0.022,0.053C0.019,0.05 0.018,0.047 0.018,0.042C0.018,0.041 0.018,0.039 0.019,0.037C0.02,0.035 0.021,0.034 0.022,0.032L0.049,-0.009C0.036,-0.019 0.027,-0.031 0.02,-0.046C0.013,-0.061 0.01,-0.078 0.01,-0.097C0.01,-0.118 0.014,-0.136 0.021,-0.151C0.028,-0.167 0.037,-0.179 0.047,-0.19C0.057,-0.2 0.066,-0.208 0.076,-0.213C0.086,-0.218 0.093,-0.22 0.098,-0.22C0.104,-0.22 0.108,-0.219 0.111,-0.216C0.113,-0.213 0.115,-0.209 0.115,-0.204C0.115,-0.199 0.113,-0.194 0.11,-0.192C0.106,-0.189 0.102,-0.186 0.097,-0.184C0.091,-0.181 0.086,-0.177 0.08,-0.173C0.074,-0.168 0.069,-0.162 0.064,-0.155C0.059,-0.148 0.055,-0.139 0.051,-0.129C0.048,-0.12 0.046,-0.109 0.046,-0.097C0.046,-0.085 0.048,-0.074 0.052,-0.064C0.056,-0.054 0.062,-0.046 0.069,-0.04L0.131,-0.134C0.126,-0.147 0.124,-0.16 0.124,-0.173C0.124,-0.191 0.128,-0.207 0.137,-0.218C0.146,-0.23 0.158,-0.236 0.173,-0.236C0.18,-0.236 0.187,-0.234 0.194,-0.231L0.216,-0.265C0.217,-0.267 0.219,-0.269 0.222,-0.27C0.224,-0.271 0.226,-0.271 0.229,-0.271C0.234,-0.271 0.237,-0.269 0.24,-0.266C0.243,-0.263 0.245,-0.26 0.245,-0.256C0.245,-0.252 0.243,-0.248 0.241,-0.245L0.218,-0.21C0.224,-0.201 0.229,-0.189 0.233,-0.175C0.236,-0.161 0.238,-0.144 0.238,-0.123C0.238,-0.113 0.237,-0.102 0.234,-0.09C0.236,-0.09 0.238,-0.09 0.24,-0.09L0.247,-0.09C0.258,-0.09 0.268,-0.091 0.276,-0.094C0.285,-0.096 0.293,-0.1 0.3,-0.105C0.307,-0.111 0.314,-0.117 0.32,-0.125C0.325,-0.134 0.331,-0.143 0.336,-0.154C0.337,-0.156 0.339,-0.158 0.342,-0.159C0.346,-0.161 0.349,-0.162 0.352,-0.162C0.356,-0.162 0.36,-0.16 0.364,-0.157C0.368,-0.154 0.37,-0.149 0.37,-0.144C0.37,-0.141 0.369,-0.138 0.368,-0.135C0.366,-0.132 0.365,-0.129 0.364,-0.126C0.358,-0.117 0.352,-0.107 0.344,-0.098C0.337,-0.089 0.329,-0.082 0.319,-0.075C0.309,-0.068 0.298,-0.063 0.285,-0.059C0.273,-0.055 0.259,-0.053 0.244,-0.054ZM0.116,-0.021C0.134,-0.021 0.15,-0.026 0.162,-0.034C0.174,-0.043 0.183,-0.054 0.19,-0.067C0.173,-0.076 0.159,-0.088 0.148,-0.103L0.097,-0.024C0.103,-0.022 0.11,-0.021 0.116,-0.021ZM0.17,-0.137C0.174,-0.13 0.178,-0.124 0.183,-0.118C0.188,-0.112 0.194,-0.107 0.201,-0.103C0.202,-0.109 0.202,-0.116 0.202,-0.123C0.202,-0.131 0.202,-0.14 0.2,-0.149C0.199,-0.158 0.197,-0.166 0.195,-0.174L0.17,-0.137ZM0.173,-0.2C0.171,-0.2 0.168,-0.199 0.165,-0.196C0.162,-0.194 0.16,-0.188 0.16,-0.179L0.174,-0.2L0.173,-0.2Z" style="fill:white;fill-rule:nonzero;"/>
        </g>
        <g transform="matrix(160.464,0,0,160.464,298.576,325.955)">
            <path d="M0.296,-0.135C0.293,-0.128 0.288,-0.119 0.283,-0.109C0.278,-0.098 0.271,-0.088 0.265,-0.077C0.258,-0.066 0.25,-0.055 0.242,-0.044C0.233,-0.033 0.224,-0.023 0.214,-0.014C0.204,-0.006 0.194,0.001 0.182,0.007C0.171,0.012 0.159,0.015 0.146,0.015C0.127,0.015 0.11,0.009 0.096,-0.003C0.082,-0.015 0.07,-0.031 0.061,-0.051C0.051,-0.07 0.043,-0.093 0.037,-0.117C0.031,-0.142 0.026,-0.168 0.023,-0.194C0.02,-0.219 0.017,-0.245 0.016,-0.269C0.015,-0.293 0.015,-0.315 0.015,-0.334C0.015,-0.361 0.016,-0.39 0.017,-0.419C0.019,-0.448 0.022,-0.477 0.026,-0.505C0.03,-0.533 0.035,-0.559 0.041,-0.584C0.047,-0.61 0.054,-0.632 0.062,-0.65C0.071,-0.669 0.08,-0.684 0.091,-0.695C0.102,-0.706 0.114,-0.712 0.127,-0.712C0.138,-0.712 0.148,-0.709 0.156,-0.704C0.165,-0.699 0.172,-0.691 0.178,-0.68C0.184,-0.668 0.189,-0.653 0.192,-0.635C0.195,-0.617 0.197,-0.595 0.197,-0.568C0.197,-0.536 0.193,-0.502 0.187,-0.468C0.18,-0.433 0.17,-0.398 0.159,-0.363C0.147,-0.328 0.133,-0.293 0.117,-0.258C0.101,-0.223 0.084,-0.188 0.066,-0.155C0.074,-0.114 0.085,-0.081 0.099,-0.058C0.112,-0.034 0.129,-0.022 0.148,-0.022C0.161,-0.022 0.174,-0.028 0.186,-0.038C0.198,-0.048 0.209,-0.06 0.219,-0.074C0.229,-0.088 0.238,-0.102 0.245,-0.117C0.253,-0.131 0.259,-0.143 0.263,-0.152C0.265,-0.155 0.267,-0.158 0.27,-0.159C0.273,-0.161 0.276,-0.162 0.28,-0.162C0.285,-0.162 0.29,-0.16 0.293,-0.156C0.297,-0.152 0.298,-0.148 0.298,-0.143C0.298,-0.141 0.298,-0.139 0.296,-0.135ZM0.052,-0.332C0.052,-0.311 0.052,-0.291 0.053,-0.271C0.054,-0.252 0.056,-0.234 0.057,-0.216C0.071,-0.243 0.084,-0.271 0.096,-0.301C0.109,-0.33 0.119,-0.36 0.129,-0.391C0.138,-0.421 0.146,-0.452 0.152,-0.482C0.157,-0.512 0.16,-0.541 0.16,-0.568C0.16,-0.606 0.157,-0.634 0.151,-0.65C0.145,-0.667 0.136,-0.675 0.126,-0.675C0.119,-0.675 0.113,-0.671 0.106,-0.661C0.1,-0.652 0.094,-0.639 0.088,-0.623C0.083,-0.606 0.078,-0.587 0.073,-0.565C0.069,-0.543 0.065,-0.519 0.062,-0.494C0.059,-0.468 0.056,-0.442 0.054,-0.414C0.053,-0.386 0.052,-0.359 0.052,-0.332Z" style="fill:white;fill-rule:nonzero;"/>
        </g>
        <g transform="matrix(160.464,0,0,160.464,373.088,325.955)">
            <path d="M0.511,-0.622C0.506,-0.615 0.502,-0.607 0.497,-0.598C0.493,-0.589 0.489,-0.579 0.485,-0.567C0.482,-0.556 0.479,-0.542 0.477,-0.527C0.474,-0.512 0.473,-0.495 0.472,-0.476C0.472,-0.458 0.471,-0.441 0.47,-0.423C0.47,-0.406 0.469,-0.388 0.468,-0.371C0.47,-0.371 0.472,-0.371 0.476,-0.371C0.493,-0.371 0.511,-0.369 0.532,-0.364C0.553,-0.358 0.575,-0.351 0.597,-0.341C0.627,-0.349 0.653,-0.359 0.676,-0.372C0.699,-0.384 0.719,-0.399 0.737,-0.414C0.755,-0.43 0.771,-0.447 0.784,-0.465C0.798,-0.483 0.811,-0.501 0.823,-0.52C0.834,-0.538 0.846,-0.556 0.856,-0.573C0.866,-0.591 0.877,-0.608 0.889,-0.623C0.9,-0.638 0.914,-0.653 0.929,-0.667C0.944,-0.681 0.96,-0.693 0.976,-0.703C0.992,-0.714 1.008,-0.722 1.024,-0.728C1.041,-0.734 1.056,-0.737 1.07,-0.737C1.075,-0.737 1.08,-0.735 1.084,-0.732C1.088,-0.729 1.09,-0.725 1.09,-0.719C1.09,-0.714 1.088,-0.71 1.085,-0.706C1.081,-0.702 1.077,-0.701 1.072,-0.7C1.062,-0.7 1.051,-0.697 1.037,-0.692C1.024,-0.688 1.011,-0.681 0.997,-0.672C0.983,-0.663 0.969,-0.653 0.955,-0.641C0.941,-0.629 0.929,-0.615 0.918,-0.6C0.905,-0.583 0.893,-0.565 0.883,-0.547C0.872,-0.529 0.861,-0.512 0.849,-0.494C0.838,-0.477 0.826,-0.46 0.813,-0.443C0.801,-0.426 0.786,-0.41 0.77,-0.395C0.754,-0.38 0.735,-0.366 0.714,-0.353C0.693,-0.339 0.669,-0.327 0.641,-0.316C0.664,-0.302 0.687,-0.283 0.708,-0.261C0.729,-0.24 0.753,-0.215 0.778,-0.188C0.799,-0.166 0.818,-0.144 0.837,-0.125C0.855,-0.105 0.873,-0.087 0.89,-0.073C0.908,-0.058 0.925,-0.046 0.941,-0.038C0.958,-0.029 0.974,-0.025 0.991,-0.025C1.012,-0.025 1.032,-0.03 1.051,-0.041C1.07,-0.052 1.087,-0.068 1.1,-0.089C1.104,-0.094 1.109,-0.097 1.116,-0.097C1.121,-0.097 1.126,-0.095 1.129,-0.091C1.133,-0.087 1.134,-0.083 1.134,-0.079C1.134,-0.075 1.133,-0.072 1.131,-0.069C1.115,-0.042 1.094,-0.022 1.069,-0.009C1.045,0.005 1.019,0.012 0.992,0.012C0.971,0.012 0.951,0.008 0.932,-0.001C0.912,-0.01 0.893,-0.023 0.874,-0.038C0.855,-0.054 0.835,-0.073 0.815,-0.094C0.795,-0.115 0.773,-0.138 0.75,-0.163C0.736,-0.179 0.721,-0.194 0.708,-0.208C0.695,-0.222 0.682,-0.235 0.67,-0.246C0.657,-0.258 0.645,-0.268 0.632,-0.278C0.619,-0.287 0.606,-0.295 0.592,-0.302C0.575,-0.298 0.558,-0.295 0.542,-0.293C0.525,-0.291 0.51,-0.291 0.497,-0.291C0.49,-0.291 0.484,-0.291 0.479,-0.291C0.473,-0.291 0.468,-0.292 0.463,-0.293C0.461,-0.264 0.457,-0.237 0.452,-0.21C0.447,-0.184 0.44,-0.159 0.432,-0.135C0.423,-0.112 0.413,-0.091 0.4,-0.072C0.387,-0.053 0.371,-0.036 0.353,-0.022C0.334,-0.009 0.313,0.002 0.288,0.01C0.263,0.017 0.234,0.021 0.202,0.021C0.183,0.021 0.165,0.019 0.147,0.016C0.129,0.013 0.111,0.009 0.094,0.003C0.078,-0.003 0.062,-0.011 0.047,-0.019C0.031,-0.028 0.018,-0.038 0.006,-0.049C0.002,-0.052 0,-0.057 0,-0.063C0,-0.067 0.002,-0.072 0.005,-0.075C0.009,-0.079 0.013,-0.081 0.018,-0.081C0.023,-0.081 0.028,-0.079 0.031,-0.076C0.052,-0.057 0.077,-0.042 0.107,-0.031C0.137,-0.021 0.169,-0.016 0.202,-0.016C0.243,-0.016 0.277,-0.023 0.305,-0.037C0.332,-0.051 0.355,-0.07 0.372,-0.096C0.389,-0.122 0.401,-0.152 0.41,-0.188C0.418,-0.223 0.424,-0.263 0.428,-0.307C0.424,-0.31 0.421,-0.314 0.419,-0.318C0.417,-0.322 0.417,-0.326 0.417,-0.331C0.417,-0.342 0.422,-0.351 0.432,-0.358C0.433,-0.378 0.433,-0.397 0.434,-0.417C0.434,-0.437 0.435,-0.458 0.436,-0.479C0.436,-0.513 0.44,-0.541 0.446,-0.563C0.453,-0.586 0.46,-0.605 0.468,-0.621C0.451,-0.62 0.434,-0.621 0.417,-0.623C0.399,-0.625 0.38,-0.627 0.362,-0.629C0.343,-0.631 0.325,-0.633 0.306,-0.635C0.288,-0.638 0.27,-0.639 0.252,-0.639C0.229,-0.639 0.208,-0.635 0.188,-0.629C0.169,-0.622 0.151,-0.613 0.136,-0.601C0.122,-0.589 0.11,-0.575 0.102,-0.559C0.093,-0.542 0.089,-0.524 0.089,-0.504C0.089,-0.487 0.093,-0.472 0.1,-0.461C0.107,-0.45 0.115,-0.441 0.125,-0.435C0.134,-0.428 0.142,-0.424 0.15,-0.421C0.157,-0.418 0.162,-0.417 0.163,-0.417C0.167,-0.416 0.17,-0.413 0.173,-0.41C0.175,-0.406 0.177,-0.403 0.177,-0.398C0.177,-0.393 0.175,-0.389 0.171,-0.385C0.167,-0.382 0.163,-0.38 0.158,-0.38C0.156,-0.38 0.155,-0.381 0.154,-0.381C0.145,-0.383 0.134,-0.387 0.123,-0.393C0.111,-0.398 0.1,-0.406 0.089,-0.416C0.079,-0.426 0.07,-0.438 0.063,-0.453C0.056,-0.467 0.052,-0.484 0.052,-0.504C0.052,-0.529 0.057,-0.552 0.068,-0.573C0.078,-0.594 0.093,-0.613 0.111,-0.628C0.129,-0.643 0.15,-0.655 0.174,-0.663C0.198,-0.671 0.224,-0.675 0.251,-0.675C0.273,-0.675 0.294,-0.674 0.316,-0.672C0.338,-0.67 0.359,-0.667 0.38,-0.665C0.401,-0.662 0.421,-0.66 0.44,-0.658C0.459,-0.657 0.476,-0.656 0.492,-0.658C0.498,-0.666 0.506,-0.673 0.515,-0.681C0.523,-0.688 0.533,-0.695 0.543,-0.7C0.553,-0.706 0.563,-0.711 0.573,-0.714C0.583,-0.718 0.593,-0.72 0.603,-0.72C0.613,-0.72 0.622,-0.717 0.63,-0.71C0.637,-0.704 0.641,-0.696 0.641,-0.686C0.641,-0.678 0.638,-0.671 0.631,-0.664C0.624,-0.656 0.614,-0.65 0.602,-0.644C0.59,-0.638 0.577,-0.633 0.561,-0.629C0.545,-0.625 0.528,-0.623 0.511,-0.622ZM0.542,-0.327C0.539,-0.328 0.535,-0.329 0.53,-0.33C0.525,-0.331 0.52,-0.333 0.514,-0.333C0.508,-0.334 0.502,-0.335 0.495,-0.336C0.489,-0.337 0.482,-0.337 0.476,-0.337C0.474,-0.337 0.473,-0.337 0.471,-0.337C0.47,-0.337 0.468,-0.336 0.467,-0.336C0.466,-0.334 0.466,-0.333 0.466,-0.331C0.466,-0.329 0.466,-0.327 0.466,-0.326C0.471,-0.324 0.479,-0.324 0.492,-0.324L0.501,-0.324C0.506,-0.324 0.51,-0.324 0.515,-0.324C0.52,-0.325 0.525,-0.325 0.53,-0.325C0.535,-0.326 0.539,-0.326 0.542,-0.327ZM0.604,-0.69C0.601,-0.69 0.597,-0.689 0.592,-0.688C0.586,-0.686 0.58,-0.684 0.574,-0.681C0.568,-0.678 0.562,-0.674 0.556,-0.671C0.55,-0.667 0.544,-0.664 0.54,-0.66C0.548,-0.66 0.557,-0.662 0.566,-0.666C0.575,-0.669 0.583,-0.672 0.589,-0.676C0.596,-0.679 0.601,-0.683 0.604,-0.686C0.607,-0.688 0.607,-0.69 0.604,-0.69Z" style="fill:white;fill-rule:nonzero;"/>
        </g>
        <g transform="matrix(160.464,0,0,160.464,553.531,325.955)">
            <path d="M0.07,-0.201C0.069,-0.192 0.067,-0.184 0.065,-0.176C0.063,-0.168 0.061,-0.162 0.059,-0.156C0.058,-0.15 0.056,-0.146 0.055,-0.142C0.053,-0.139 0.053,-0.137 0.052,-0.136C0.049,-0.129 0.043,-0.125 0.035,-0.125C0.031,-0.125 0.026,-0.127 0.022,-0.13C0.019,-0.134 0.017,-0.138 0.017,-0.143C0.017,-0.145 0.017,-0.146 0.018,-0.147C0.018,-0.148 0.019,-0.15 0.021,-0.153C0.022,-0.156 0.023,-0.161 0.025,-0.168C0.027,-0.175 0.03,-0.185 0.033,-0.2C0.027,-0.2 0.021,-0.2 0.016,-0.2C0.01,-0.201 0.004,-0.202 -0.001,-0.204C-0.006,-0.206 -0.01,-0.209 -0.013,-0.213C-0.016,-0.217 -0.018,-0.223 -0.018,-0.23C-0.018,-0.236 -0.017,-0.243 -0.013,-0.253C-0.01,-0.262 -0.006,-0.272 -0.001,-0.281C0.004,-0.29 0.01,-0.298 0.017,-0.304C0.023,-0.311 0.03,-0.314 0.036,-0.314C0.044,-0.314 0.05,-0.312 0.054,-0.306C0.059,-0.301 0.063,-0.294 0.065,-0.286C0.068,-0.278 0.07,-0.27 0.071,-0.261C0.072,-0.252 0.073,-0.244 0.073,-0.238L0.104,-0.238C0.123,-0.238 0.137,-0.234 0.147,-0.226C0.157,-0.218 0.162,-0.205 0.162,-0.186C0.162,-0.179 0.161,-0.171 0.16,-0.163L0.153,-0.112C0.152,-0.103 0.152,-0.095 0.152,-0.087C0.152,-0.075 0.153,-0.066 0.157,-0.058C0.16,-0.05 0.164,-0.044 0.169,-0.04C0.174,-0.035 0.179,-0.032 0.185,-0.03C0.19,-0.028 0.195,-0.027 0.2,-0.027C0.214,-0.027 0.227,-0.032 0.239,-0.041C0.252,-0.05 0.263,-0.061 0.273,-0.074C0.284,-0.087 0.293,-0.1 0.302,-0.115C0.31,-0.129 0.317,-0.142 0.322,-0.152C0.324,-0.155 0.326,-0.158 0.329,-0.159C0.332,-0.161 0.335,-0.162 0.338,-0.162C0.344,-0.162 0.349,-0.16 0.352,-0.156C0.355,-0.152 0.357,-0.148 0.357,-0.144C0.357,-0.14 0.356,-0.137 0.355,-0.135C0.347,-0.121 0.339,-0.106 0.329,-0.09C0.319,-0.073 0.308,-0.057 0.295,-0.042C0.282,-0.028 0.268,-0.015 0.252,-0.005C0.236,0.005 0.219,0.01 0.2,0.01C0.188,0.01 0.177,0.008 0.167,0.003C0.157,-0.001 0.148,-0.008 0.14,-0.016C0.132,-0.024 0.126,-0.034 0.122,-0.047C0.117,-0.059 0.115,-0.073 0.115,-0.088C0.115,-0.104 0.116,-0.12 0.12,-0.136C0.123,-0.153 0.125,-0.168 0.125,-0.183C0.125,-0.189 0.123,-0.193 0.12,-0.197C0.118,-0.2 0.111,-0.201 0.102,-0.201L0.087,-0.201C0.082,-0.201 0.076,-0.201 0.07,-0.201ZM0.037,-0.237C0.037,-0.239 0.037,-0.242 0.037,-0.246C0.037,-0.25 0.036,-0.253 0.036,-0.257C0.035,-0.26 0.035,-0.264 0.034,-0.266C0.033,-0.269 0.032,-0.27 0.031,-0.27C0.03,-0.27 0.029,-0.269 0.028,-0.266C0.026,-0.264 0.025,-0.261 0.023,-0.258C0.021,-0.254 0.02,-0.25 0.019,-0.247C0.017,-0.243 0.016,-0.239 0.016,-0.237L0.037,-0.237Z" style="fill:white;fill-rule:nonzero;"/>
        </g>
        <g transform="matrix(160.464,0,0,160.464,602.187,325.955)">
            <path d="M0.244,-0.054C0.236,-0.054 0.228,-0.054 0.222,-0.056C0.217,-0.046 0.211,-0.037 0.205,-0.029C0.198,-0.02 0.19,-0.013 0.181,-0.007C0.172,-0.001 0.162,0.004 0.151,0.008C0.14,0.011 0.128,0.013 0.115,0.013C0.099,0.013 0.085,0.01 0.073,0.005C0.06,-0 0.049,-0.008 0.04,-0.017C0.03,-0.027 0.023,-0.038 0.018,-0.052C0.012,-0.066 0.01,-0.08 0.01,-0.097C0.01,-0.118 0.014,-0.136 0.021,-0.151C0.028,-0.167 0.037,-0.179 0.047,-0.19C0.057,-0.2 0.066,-0.208 0.076,-0.213C0.086,-0.218 0.093,-0.22 0.098,-0.22C0.104,-0.22 0.108,-0.219 0.111,-0.216C0.113,-0.213 0.115,-0.209 0.115,-0.204C0.115,-0.199 0.113,-0.194 0.11,-0.192C0.106,-0.189 0.102,-0.186 0.097,-0.184C0.091,-0.181 0.086,-0.177 0.08,-0.173C0.074,-0.168 0.069,-0.162 0.064,-0.155C0.059,-0.148 0.055,-0.139 0.051,-0.129C0.048,-0.12 0.046,-0.109 0.046,-0.097C0.046,-0.086 0.048,-0.076 0.051,-0.067C0.055,-0.057 0.059,-0.049 0.065,-0.043C0.072,-0.036 0.079,-0.031 0.087,-0.027C0.096,-0.023 0.105,-0.021 0.116,-0.021C0.134,-0.021 0.15,-0.026 0.162,-0.034C0.174,-0.043 0.183,-0.054 0.19,-0.067C0.171,-0.077 0.155,-0.092 0.143,-0.11C0.13,-0.129 0.124,-0.15 0.124,-0.173C0.124,-0.191 0.128,-0.207 0.137,-0.218C0.146,-0.23 0.158,-0.236 0.173,-0.236C0.182,-0.236 0.19,-0.234 0.198,-0.229C0.206,-0.225 0.212,-0.219 0.219,-0.209C0.225,-0.2 0.229,-0.189 0.233,-0.174C0.236,-0.16 0.238,-0.143 0.238,-0.123C0.238,-0.113 0.237,-0.102 0.234,-0.09C0.236,-0.09 0.238,-0.09 0.24,-0.09L0.247,-0.09C0.258,-0.09 0.268,-0.091 0.276,-0.094C0.285,-0.096 0.293,-0.1 0.3,-0.105C0.307,-0.111 0.314,-0.117 0.32,-0.125C0.325,-0.134 0.331,-0.143 0.336,-0.154C0.337,-0.156 0.339,-0.158 0.342,-0.159C0.346,-0.161 0.349,-0.162 0.352,-0.162C0.356,-0.162 0.36,-0.16 0.364,-0.157C0.368,-0.154 0.37,-0.149 0.37,-0.144C0.37,-0.141 0.369,-0.138 0.368,-0.135C0.366,-0.132 0.365,-0.129 0.364,-0.126C0.358,-0.117 0.352,-0.107 0.344,-0.098C0.337,-0.089 0.329,-0.082 0.319,-0.075C0.309,-0.068 0.298,-0.063 0.285,-0.059C0.273,-0.055 0.259,-0.053 0.244,-0.054ZM0.16,-0.177C0.16,-0.171 0.161,-0.164 0.163,-0.157C0.164,-0.15 0.167,-0.144 0.17,-0.137C0.174,-0.13 0.178,-0.124 0.183,-0.118C0.188,-0.112 0.194,-0.107 0.201,-0.103C0.202,-0.109 0.202,-0.116 0.202,-0.123C0.202,-0.131 0.201,-0.14 0.2,-0.149C0.199,-0.159 0.197,-0.167 0.195,-0.175C0.192,-0.182 0.189,-0.188 0.186,-0.193C0.182,-0.198 0.178,-0.2 0.173,-0.2C0.171,-0.2 0.168,-0.199 0.165,-0.196C0.162,-0.193 0.16,-0.187 0.16,-0.177Z" style="fill:white;fill-rule:nonzero;"/>
        </g>
    </g>
</svg>
